<?xml version="1.0"?>
<svg xmlns="http://www.w3.org/2000/svg" id="Capa_1" enable-background="new 0 0 512 512" height="512px" viewBox="0 0 512 512" width="512px"><g><g><path d="m452.229 429.03c-.726-5.03-3.369-9.476-7.439-12.517l-58.864-43.996-103.416-195.122v-87.505h27.79c10.472 0 18.99-8.519 18.99-18.99v-15.04c0-10.471-8.519-18.99-18.99-18.99h-27.79v-17.88c0-10.471-8.515-18.99-18.98-18.99h-15.05c-10.472 0-18.99 8.519-18.99 18.99v17.88h-27.78c-10.472 0-18.99 8.519-18.99 18.99v15.04c0 10.471 8.519 18.99 18.99 18.99h27.78v21.04c0 4.142 3.357 7.5 7.5 7.5s7.5-3.358 7.5-7.5v-28.54c0-4.142-3.357-7.5-7.5-7.5h-35.28c-2.2 0-3.99-1.79-3.99-3.99v-15.04c0-2.2 1.79-3.99 3.99-3.99h35.28c4.143 0 7.5-3.358 7.5-7.5v-25.38c0-2.2 1.79-3.99 3.99-3.99h15.05c2.194 0 3.979 1.79 3.979 3.99v25.38c0 4.142 3.357 7.5 7.5 7.5h35.29c2.2 0 3.99 1.79 3.99 3.99v15.04c0 2.2-1.79 3.99-3.99 3.99h-35.29c-4.143 0-7.5 3.358-7.5 7.5v89.37h-23.02v-30.83c0-4.142-3.357-7.5-7.5-7.5s-7.5 3.358-7.5 7.5v36.464l-103.441 195.142-58.836 43.975c-4.072 3.042-6.716 7.488-7.441 12.519-.726 5.027.55 10.038 3.593 14.112l12.743 17.04c3.032 4.07 7.47 6.714 12.494 7.445 5.038.732 10.051-.543 14.13-3.589l15.64-11.689v52.151c0 4.142 3.357 7.5 7.5 7.5s7.5-3.358 7.5-7.5v-63.363l122.629-91.654 58.66 43.844c3.318 2.48 8.017 1.799 10.498-1.517 2.479-3.318 1.8-8.018-1.518-10.498l-63.15-47.2c-2.664-1.99-6.318-1.99-8.98 0l-157.758 117.909c-.866.647-1.927.916-2.992.762-1.057-.154-1.989-.709-2.633-1.574l-12.749-17.048c-.645-.863-.915-1.924-.762-2.988.153-1.063.712-2.001 1.574-2.646l179.81-134.394 179.812 134.396c.86.643 1.419 1.582 1.572 2.644.153 1.064-.117 2.125-.761 2.985l-12.757 17.061c-.637.854-1.569 1.41-2.626 1.563-1.063.154-2.127-.115-2.99-.76l-70.649-52.81c-3.318-2.48-8.018-1.801-10.497 1.517-2.48 3.317-1.801 8.018 1.517 10.498l40 29.9v63.373c0 4.142 3.357 7.5 7.5 7.5s7.5-3.358 7.5-7.5v-52.161l15.651 11.699c3.325 2.484 7.275 3.79 11.351 3.79.921 0 1.849-.067 2.777-.202 5.024-.731 9.462-3.375 12.487-7.435l12.751-17.053c3.042-4.07 4.317-9.081 3.591-14.108zm-200.719-150.267-97.344 72.757 87.337-164.76h28.993l87.316 164.744-97.322-72.741c-2.662-1.991-6.318-1.991-8.98 0z" data-original="#000000" class="active-path" data-old_color="#000000" fill="#F36449"/><path d="m256 411.87c-51.077 0-92.631 41.554-92.631 92.63 0 4.142 3.357 7.5 7.5 7.5s7.5-3.358 7.5-7.5c0-40.275 30.832-73.475 70.131-77.261v77.261c0 4.142 3.357 7.5 7.5 7.5s7.5-3.358 7.5-7.5v-77.261c39.299 3.786 70.13 36.986 70.13 77.261 0 4.142 3.357 7.5 7.5 7.5s7.5-3.358 7.5-7.5c0-51.077-41.554-92.63-92.63-92.63z" data-original="#000000" class="active-path" data-old_color="#000000" fill="#F36449"/></g></g> </svg>
