<?xml version="1.0"?>
<svg xmlns="http://www.w3.org/2000/svg" viewBox="0 0 512 512" width="512px" height="512px"><g><g id="Solid"><path d="M207.168,436a.334.334,0,1,1-.333-.333A.333.333,0,0,1,207.168,436ZM169.2,390.346l-32.091,55.583a226.888,226.888,0,0,1-71.036-71.036L121.654,342.8A161.277,161.277,0,0,0,169.2,390.346Zm-32.2-.679a18.334,18.334,0,1,0-36.667,0v11.666a8,8,0,0,0,8,8H129a8,8,0,0,0,8-8Zm111,90.177a222.509,222.509,0,0,1-97.052-25.889l32.09-55.582A158.86,158.86,0,0,0,248,415.8Zm-21.165-38.513h-5.288a15.667,15.667,0,1,0-29.425,0h-5.287v16h40ZM302.87,212.482a27.382,27.382,0,0,1,14.86-11.892,11.624,11.624,0,0,0,6.571-5.577,44.006,44.006,0,0,1-9.675,3.114,28.246,28.246,0,0,0-16.4,9.842Q300.661,210.109,302.87,212.482Zm-184.2,174.851a2.337,2.337,0,0,0-2.334,2.334v3.666H121v-3.666A2.336,2.336,0,0,0,118.667,387.333ZM256,192c.788,0,1.568.031,2.349.06a27.629,27.629,0,0,1,2.116-18.888,11.6,11.6,0,0,0,.7-8.6,44.5,44.5,0,0,1-4.631,9.043,28.653,28.653,0,0,0-4.624,18.526C253.265,192.059,254.625,192,256,192Zm-63.94,61.64a27.981,27.981,0,0,1-18.888-2.1,11.611,11.611,0,0,0-8.6-.7,44.472,44.472,0,0,1,9.043,4.631,28.659,28.659,0,0,0,18.528,4.624c-.086-1.353-.145-2.714-.145-4.088C192,255.209,192.031,254.425,192.06,253.64Zm127.88,4.719a27.976,27.976,0,0,1,18.888,2.106,11.608,11.608,0,0,0,8.6.7,44.472,44.472,0,0,1-9.043-4.631,28.653,28.653,0,0,0-18.528-4.624c.086,1.353.145,2.713.145,4.088C320,256.791,319.969,257.575,319.94,258.359Zm-136.9-144.732-32.09-55.582A222.509,222.509,0,0,1,248,32.156V96.2A158.86,158.86,0,0,0,183.038,113.627Zm7.272-48.334a17.071,17.071,0,0,1,.128,15.148l-.186.38a8,8,0,0,0,7.188,11.512h15.893a8,8,0,0,0,7.243-11.4l-.342-.731a16.9,16.9,0,0,1,.12-14.685l.166-.339a8,8,0,0,0-7.187-11.516H197.44a8,8,0,0,0-7.13,11.627Zm138.652,48.334A158.86,158.86,0,0,0,264,96.2V32.156a222.509,222.509,0,0,1,97.052,25.889Zm-8.523-49.844a8,8,0,0,0-5.242-5.695l-15.031-5.011A8,8,0,0,0,289.679,61.5L291.605,80a8,8,0,0,0,13.7,4.746l13.1-13.49A8,8,0,0,0,320.439,63.783ZM342.8,121.654l32.091-55.583a226.888,226.888,0,0,1,71.036,71.036L390.346,169.2A161.277,161.277,0,0,0,342.8,121.654ZM373.667,121a16,16,0,1,0,16-16A16.019,16.019,0,0,0,373.667,121Zm24.706,62.039,55.582-32.091A222.5,222.5,0,0,1,479.844,248H415.8A158.855,158.855,0,0,0,398.373,183.039ZM424,216a8,8,0,0,0,8,8h16a8,8,0,0,0,8-8V200a8,8,0,0,0-8-8H432a8,8,0,0,0-8,8ZM58.045,361.052A222.5,222.5,0,0,1,32.156,264H96.2a158.855,158.855,0,0,0,17.427,64.961ZM64.176,296,51.225,313.59l12.884,9.487L78.155,304H88V288a8,8,0,0,0-8-8H64v16ZM96.2,248H32.156a222.5,222.5,0,0,1,25.889-97.052l55.582,32.091A158.855,158.855,0,0,0,96.2,248Zm-9.533-42A18.334,18.334,0,0,0,50,206v11.667a8,8,0,0,0,8,8H78.667a8,8,0,0,0,8-8Zm34.987-36.8L66.071,137.107a226.888,226.888,0,0,1,71.036-71.036L169.2,121.654A161.277,161.277,0,0,0,121.654,169.2ZM107.333,132h24a8,8,0,0,0,8-8v-8a8,8,0,0,0-8-8h-24a8,8,0,0,0-8,8v8A8,8,0,0,0,107.333,132Zm-39,71.667A2.336,2.336,0,0,0,66,206v3.667h4.667V206A2.336,2.336,0,0,0,68.333,203.667Zm235.7,94.562a64.607,64.607,0,0,1-4.514,4.641,27.373,27.373,0,0,1,11.892,14.859,11.626,11.626,0,0,0,5.577,6.572,44,44,0,0,1-3.113-9.675A28.246,28.246,0,0,0,304.031,298.229Zm24.931,100.144,32.09,55.582A222.509,222.509,0,0,1,264,479.844V415.8A158.86,158.86,0,0,0,328.962,398.373Zm-8.3,43.293a18.333,18.333,0,1,0-36.666,0v11.666a8,8,0,0,0,8,8h20.666a8,8,0,0,0,8-8ZM208,256a48,48,0,1,1,48,48A48.054,48.054,0,0,1,208,256Zm64-8h16V232H272Zm-32,24v16h32V272Zm-19.578-39.155,7.156,14.31,5.881-2.94a7.685,7.685,0,0,1,6.541-.163V264h16V240a8,8,0,0,0-2.343-5.657A23.669,23.669,0,0,0,226.3,229.9Zm81.912,206.487A2.336,2.336,0,0,0,300,441.666v3.666h4.666v-3.666A2.336,2.336,0,0,0,302.334,439.332Zm72.559,6.6L342.8,390.346A161.277,161.277,0,0,0,390.346,342.8l55.583,32.091a226.888,226.888,0,0,1-71.036,71.036ZM376.333,391c0,10.033,7.178,18.195,16,18.195s16-8.162,16-18.195-7.178-18.195-16-18.195S376.333,380.967,376.333,391ZM256,112c79.4,0,144,64.6,144,144S335.4,400,256,400,112,335.4,112,256,176.6,112,256,112Zm-90.507,64.807,9.17,9.17a28.374,28.374,0,0,1,4.969,6.7,28.077,28.077,0,0,1,2.805,7.827,44.286,44.286,0,0,0,10.131,20.57l-44.377-18.383-6.123,14.782,48.259,19.991-1.165.388a11.768,11.768,0,0,1-8.829-.623,27.661,27.661,0,0,0-24.659,0l-23.25,11.62A8,8,0,0,0,136,264h12.97a28.327,28.327,0,0,1,8.216,1.212,28.658,28.658,0,0,1,7.558,3.566,44.26,44.26,0,0,0,21.665,7.383l-44.341,18.368,6.123,14.782,48.271-20-.559,1.12a11.541,11.541,0,0,1-6.7,5.8A27.675,27.675,0,0,0,171.78,313.66l-8.219,24.66a8,8,0,0,0,13.247,8.187l9.17-9.17a28.387,28.387,0,0,1,6.695-4.968,28.061,28.061,0,0,1,7.829-2.805,44.288,44.288,0,0,0,20.571-10.133l-18.384,44.378,14.782,6.123,19.991-48.259.389,1.167a11.634,11.634,0,0,1-.624,8.827,27.663,27.663,0,0,0,0,24.66l11.62,23.25A8,8,0,0,0,264,376V363.03a28.344,28.344,0,0,1,1.212-8.217,28.694,28.694,0,0,1,3.565-7.557,44.228,44.228,0,0,0,7.377-21.683l18.375,44.359,14.782-6.123-20-48.272,1.118.558a11.541,11.541,0,0,1,5.8,6.7,27.672,27.672,0,0,0,17.429,17.427l24.659,8.22a8,8,0,0,0,8.188-13.246l-9.17-9.17a28.374,28.374,0,0,1-4.969-6.7,28.077,28.077,0,0,1-2.805-7.827,44.286,44.286,0,0,0-10.131-20.57l44.377,18.383,6.123-14.782-48.259-19.991,1.165-.388a11.768,11.768,0,0,1,8.829.623,27.664,27.664,0,0,0,24.659,0l23.25-11.62A8,8,0,0,0,376,248H363.03a28.327,28.327,0,0,1-8.216-1.212,28.658,28.658,0,0,1-7.558-3.566,44.262,44.262,0,0,0-21.678-7.378l44.354-18.373-6.123-14.782-48.271,20,.559-1.12a11.541,11.541,0,0,1,6.7-5.8A27.675,27.675,0,0,0,340.22,198.34l8.219-24.66a8,8,0,0,0-13.247-8.187l-9.17,9.17a28.387,28.387,0,0,1-6.695,4.968,28.061,28.061,0,0,1-7.829,2.805,44.288,44.288,0,0,0-20.571,10.133l18.384-44.378-14.782-6.123-19.991,48.259-.389-1.167a11.634,11.634,0,0,1,.624-8.827,27.663,27.663,0,0,0,0-24.66l-11.62-23.25A8,8,0,0,0,248,136v12.97a28.344,28.344,0,0,1-1.212,8.217,28.694,28.694,0,0,1-3.565,7.557,44.228,44.228,0,0,0-7.377,21.683l-18.375-44.359-14.782,6.123,20,48.272-1.118-.558a11.541,11.541,0,0,1-5.8-6.7,27.672,27.672,0,0,0-17.429-17.427l-24.659-8.22a8,8,0,0,0-8.188,13.246Zm42.476,36.964a64.607,64.607,0,0,1,4.514-4.641,27.373,27.373,0,0,1-11.892-14.859,11.626,11.626,0,0,0-5.577-6.572,44,44,0,0,1,3.113,9.675A28.246,28.246,0,0,0,207.969,213.771ZM453.955,361.052l-55.582-32.091A158.855,158.855,0,0,0,415.8,264h64.044A222.5,222.5,0,0,1,453.955,361.052ZM442.5,321.5c10.033,0,18.195-7.178,18.195-16s-8.162-16-18.195-16-18.195,7.178-18.195,16S432.467,321.5,442.5,321.5ZM256,320c-.788,0-1.568-.031-2.349-.06a27.629,27.629,0,0,1-2.116,18.888,11.6,11.6,0,0,0-.7,8.6,44.5,44.5,0,0,1,4.631-9.043,28.653,28.653,0,0,0,4.624-18.526C258.735,319.941,257.375,320,256,320Zm-46.87-20.482a27.382,27.382,0,0,1-14.86,11.892,11.624,11.624,0,0,0-6.571,5.577,44.006,44.006,0,0,1,9.675-3.114,28.246,28.246,0,0,0,16.4-9.842Q211.34,301.891,209.13,299.518Z" data-original="#000000" class="active-path" data-old_color="#000000" fill="#F36449"/></g></g> </svg>
