<?xml version="1.0" encoding="utf-8"?>
<!-- Generator: Adobe Illustrator 24.0.1, SVG Export Plug-In . SVG Version: 6.00 Build 0)  -->
<svg version="1.1" id="Layer_1" xmlns="http://www.w3.org/2000/svg" xmlns:xlink="http://www.w3.org/1999/xlink" x="0px" y="0px"
	 viewBox="0 0 1511.6 406.1" style="enable-background:new 0 0 1511.6 406.1;" xml:space="preserve">
<style type="text/css">
	.st0{fill:#FFFFFF;}
	.st1{fill:#F4001C;}
	.st2{fill:#E83D49;}
	.st3{fill:url(#SVGID_1_);}
	.st4{fill:url(#SVGID_2_);}
	.st5{fill:url(#SVGID_3_);}
	.st6{fill:url(#SVGID_4_);}
	.st7{fill:url(#SVGID_5_);}
	.st8{fill:url(#SVGID_6_);}
	.st9{fill:url(#SVGID_7_);}
	.st10{fill:url(#SVGID_8_);}
	.st11{fill:url(#SVGID_9_);}
	.st12{fill:url(#SVGID_10_);}
	.st13{fill:#E10212;}
</style>
<g>
	<g>
		<polygon class="st2" points="84.6,153.1 58.9,153.1 66,100.8 91.7,100.8 		"/>
		<polygon class="st2" points="134.9,134.5 109.1,134.5 116.2,82.3 142,82.3 		"/>
		<polygon class="st2" points="110.4,215.2 84.6,215.2 91.7,163 117.5,163 		"/>
		<polygon class="st2" points="31.8,211.9 6,211.9 13.1,159.7 38.9,159.7 		"/>
		<polygon class="st2" points="84.6,286.7 58.9,286.7 66,234.5 91.7,234.5 		"/>
		<polygon class="st2" points="121.2,323.8 95.5,323.8 102.6,271.5 128.4,271.5 		"/>
	</g>
	<g>
		<linearGradient id="SVGID_1_" gradientUnits="userSpaceOnUse" x1="474.2902" y1="157.6545" x2="474.2902" y2="395.6231">
			<stop  offset="0" style="stop-color:#FF001C"/>
			<stop  offset="1" style="stop-color:#940317"/>
		</linearGradient>
		<path class="st3" d="M501.3,175.3c-1.4-7.8-7.8-20-25.8-20c-13.4,0-22.2,8.6-22.2,18c0,7.8,5,14,15.4,16l19.8,3.8
			c25.8,5,39.7,21.8,39.7,41.9c0,21.8-18.2,43.9-51.3,43.9c-37.7,0-54.3-24.2-56.5-44.5l25.6-6.8c1.2,14,11,26.6,31,26.6
			c14.8,0,23-7.4,23-17.4c0-8.2-6.2-14.6-17.2-16.8l-19.8-4c-22.6-4.6-37.3-19.2-37.3-40.7c0-25.2,22.6-44.5,49.5-44.5
			c34.4,0,47.7,20.8,50.9,36.9L501.3,175.3z"/>
		<linearGradient id="SVGID_2_" gradientUnits="userSpaceOnUse" x1="571.2149" y1="157.6545" x2="571.2149" y2="395.6231">
			<stop  offset="0" style="stop-color:#FF001C"/>
			<stop  offset="1" style="stop-color:#940317"/>
		</linearGradient>
		<path class="st4" d="M583.4,177.3h19.8V201h-19.8v41.3c0,8.6,4,11.4,11.6,11.4c3.2,0,6.8-0.4,8.2-0.8v22c-2.4,1-7.2,2.4-15,2.4
			c-19.2,0-31.2-11.4-31.2-30.4V201h-17.8v-23.6h5c10.4,0,15.2-6.8,15.2-15.6v-13.8h24V177.3z"/>
		<linearGradient id="SVGID_3_" gradientUnits="userSpaceOnUse" x1="654.524" y1="157.6545" x2="654.524" y2="395.6231">
			<stop  offset="0" style="stop-color:#FF001C"/>
			<stop  offset="1" style="stop-color:#940317"/>
		</linearGradient>
		<path class="st5" d="M684.6,203.8c-3-0.6-5.6-0.8-8-0.8c-13.6,0-25.4,6.6-25.4,27.8v45.1h-26.6v-98.5h25.8V192
			c6-13,19.6-15.4,28-15.4c2.2,0,4.2,0.2,6.2,0.4V203.8z"/>
		<linearGradient id="SVGID_4_" gradientUnits="userSpaceOnUse" x1="743.5417" y1="157.6545" x2="743.5417" y2="395.6231">
			<stop  offset="0" style="stop-color:#FF001C"/>
			<stop  offset="1" style="stop-color:#940317"/>
		</linearGradient>
		<path class="st6" d="M790.7,247.6c-5,17-20.6,31.2-44.9,31.2c-27,0-50.9-19.4-50.9-52.7c0-31.4,23.2-51.9,48.5-51.9
			c30.4,0,48.7,19.4,48.7,51.1c0,3.8-0.4,7.8-0.4,8.2h-70.5c0.6,13,11.6,22.4,24.8,22.4c12.4,0,19.2-6.2,22.4-15L790.7,247.6z
			 M765.9,215.4c-0.4-9.8-6.8-19.4-22-19.4c-13.8,0-21.4,10.4-22,19.4H765.9z"/>
		<linearGradient id="SVGID_5_" gradientUnits="userSpaceOnUse" x1="851.2844" y1="157.6545" x2="851.2844" y2="395.6231">
			<stop  offset="0" style="stop-color:#FF001C"/>
			<stop  offset="1" style="stop-color:#940317"/>
		</linearGradient>
		<path class="st7" d="M836.6,219.2l24.2-3.6c5.6-0.8,7.4-3.6,7.4-7c0-7-5.4-12.8-16.6-12.8c-11.6,0-18,7.4-18.8,16l-23.6-5
			c1.6-15.4,15.8-32.4,42.3-32.4c31.2,0,42.9,17.6,42.9,37.5v48.5c0,5.2,0.6,12.2,1.2,15.6H871c-0.6-2.6-1-8-1-11.8
			c-5,7.8-14.4,14.6-29,14.6c-21,0-33.8-14.2-33.8-29.6C807.1,231.4,820.1,221.6,836.6,219.2z M868.2,236v-4.4L846,235
			c-6.8,1-12.2,4.8-12.2,12.4c0,5.8,4.2,11.4,12.8,11.4C857.8,258.9,868.2,253.4,868.2,236z"/>
		<linearGradient id="SVGID_6_" gradientUnits="userSpaceOnUse" x1="996.2757" y1="157.6545" x2="996.2757" y2="395.6231">
			<stop  offset="0" style="stop-color:#FF001C"/>
			<stop  offset="1" style="stop-color:#940317"/>
		</linearGradient>
		<path class="st8" d="M921.1,275.9v-98.5h25.4v12c5.4-9.6,18-14.8,28.8-14.8c13.4,0,24.2,5.8,29.2,16.4c7.8-12,18.2-16.4,31.2-16.4
			c18.2,0,35.6,11,35.6,37.5v63.9h-25.8v-58.5c0-10.6-5.2-18.6-17.4-18.6c-11.4,0-18.2,8.8-18.2,19.4v57.7h-26.4v-58.5
			c0-10.6-5.4-18.6-17.4-18.6c-11.6,0-18.4,8.6-18.4,19.4v57.7H921.1z"/>
		<linearGradient id="SVGID_7_" gradientUnits="userSpaceOnUse" x1="1143.4698" y1="157.6545" x2="1143.4698" y2="395.6231">
			<stop  offset="0" style="stop-color:#FF001C"/>
			<stop  offset="1" style="stop-color:#940317"/>
		</linearGradient>
		<path class="st9" d="M1125.1,275.9h-26.6v-145h26.6v54.7c6.4-7.6,17.2-10.8,26.6-10.8c25,0,36.7,17.4,36.7,39.1v62.1h-26.6v-57.5
			c0-11-5.4-19.6-18.2-19.6c-11.2,0-17.8,8.4-18.4,19.2V275.9z"/>
		<linearGradient id="SVGID_8_" gradientUnits="userSpaceOnUse" x1="1253.6162" y1="157.6545" x2="1253.6162" y2="395.6231">
			<stop  offset="0" style="stop-color:#FF001C"/>
			<stop  offset="1" style="stop-color:#940317"/>
		</linearGradient>
		<path class="st10" d="M1238.9,219.2l24.2-3.6c5.6-0.8,7.4-3.6,7.4-7c0-7-5.4-12.8-16.6-12.8c-11.6,0-18,7.4-18.8,16l-23.6-5
			c1.6-15.4,15.8-32.4,42.3-32.4c31.2,0,42.9,17.6,42.9,37.5v48.5c0,5.2,0.6,12.2,1.2,15.6h-24.4c-0.6-2.6-1-8-1-11.8
			c-5,7.8-14.4,14.6-29,14.6c-21,0-33.8-14.2-33.8-29.6C1209.5,231.4,1222.5,221.6,1238.9,219.2z M1270.5,236v-4.4l-22.2,3.4
			c-6.8,1-12.2,4.8-12.2,12.4c0,5.8,4.2,11.4,12.8,11.4C1260.1,258.9,1270.5,253.4,1270.5,236z"/>
		<linearGradient id="SVGID_9_" gradientUnits="userSpaceOnUse" x1="1354.6477" y1="157.6545" x2="1354.6477" y2="395.6231">
			<stop  offset="0" style="stop-color:#FF001C"/>
			<stop  offset="1" style="stop-color:#940317"/>
		</linearGradient>
		<path class="st11" d="M1337.8,243.4c0.6,7.8,6.4,15,18,15c8.8,0,13-4.6,13-9.8c0-4.4-3-8-10.6-9.6l-13-3
			c-19-4.2-27.6-15.6-27.6-29.4c0-17.6,15.6-32.2,36.8-32.2c28,0,37.5,17.8,38.7,28.4l-22.2,5c-0.8-5.8-5-13.2-16.2-13.2
			c-7,0-12.6,4.2-12.6,9.8c0,4.8,3.6,7.8,9,8.8l14,3c19.4,4,29.2,15.8,29.2,30.2c0,16-12.4,32.4-38.3,32.4
			c-29.6,0-39.9-19.2-41.1-30.4L1337.8,243.4z"/>
		<linearGradient id="SVGID_10_" gradientUnits="userSpaceOnUse" x1="1460.6902" y1="157.6545" x2="1460.6902" y2="395.6231">
			<stop  offset="0" style="stop-color:#FF001C"/>
			<stop  offset="1" style="stop-color:#940317"/>
		</linearGradient>
		<path class="st12" d="M1442.4,275.9h-26.6v-145h26.6v54.7c6.4-7.6,17.2-10.8,26.6-10.8c25,0,36.7,17.4,36.7,39.1v62.1H1479v-57.5
			c0-11-5.4-19.6-18.2-19.6c-11.2,0-17.8,8.4-18.4,19.2V275.9z"/>
	</g>
	<g>
		<path class="st13" d="M171.9,142.8h51.3l12.2-55.9H273l-12.2,55.9h47l12.2-55.9h37.3L345,142.8h45.5v34.4h-52.7l-10.8,50.2h45.5
			v34.1h-53.1l-12.2,57.7h-37.3l12.2-57.7h-47l-12.2,57.7h-37.6l12.2-57.7H154v-34.1h51.3l10.8-50.2h-44.1V142.8z"/>
	</g>
	<g>
		<path class="st2" d="M357.1,86.9h-37.3l-12.2,55.9h-47l12.2-55.9h-37.6l-12.2,55.9h-51.3v34.4h44.1l-9.7,45.2
			c31.2,3.7,84.4,3.1,128.9-32.7l2.7-12.5h11.1c9.3-9.5,17.9-20.9,25.7-34.4h-29.6L357.1,86.9z"/>
	</g>
	<path class="st0" d="M248,149.4l72.4,52.3c1,0.8,0.8,2.4-0.5,2.7L230,232c-1.1,0.3-2.2-0.7-2-1.8l17.6-79.9
		C245.9,149.2,247.1,148.7,248,149.4z"/>
</g>
</svg>
